<?xml version="1.0" standalone="no"?>
<!DOCTYPE svg PUBLIC "-//W3C//DTD SVG 20010904//EN"
 "http://www.w3.org/TR/2001/REC-SVG-20010904/DTD/svg10.dtd">
<svg version="1.0" xmlns="http://www.w3.org/2000/svg"
 width="1407.000000pt" height="1538.000000pt" viewBox="0 0 1407.000000 1538.000000"
 preserveAspectRatio="xMidYMid meet">

<g transform="translate(0.000000,1538.000000) scale(0.100000,-0.100000)"
fill="#000000" stroke="none">
<path d="M6883 15276 c-91 -17 -192 -51 -265 -87 -31 -16 -866 -566 -1855
-1222 -989 -657 -2410 -1600 -3158 -2096 -748 -497 -1375 -917 -1393 -934 -49
-47 -101 -159 -108 -234 -18 -173 74 -346 222 -419 l59 -29 922 -5 c507 -3
924 -8 928 -11 3 -4 -12 -43 -34 -87 -145 -289 -301 -721 -384 -1062 -102
-416 -145 -754 -154 -1190 -10 -522 38 -952 162 -1448 103 -410 285 -880 477
-1227 l55 -100 -971 -5 -971 -5 -57 -23 c-76 -31 -138 -80 -180 -144 -57 -87
-73 -140 -73 -248 0 -85 3 -102 31 -160 17 -36 44 -81 60 -99 16 -20 353 -250
774 -530 410 -272 1314 -872 2010 -1334 696 -462 1787 -1187 2425 -1610 679
-451 1194 -786 1241 -809 135 -63 234 -83 409 -82 177 1 258 19 400 88 56 27
896 578 2225 1461 1174 780 2590 1719 3145 2088 556 368 1029 688 1053 711 24
22 57 70 75 106 30 61 32 71 32 175 0 108 -1 113 -38 187 -61 124 -156 196
-289 218 -40 6 -404 10 -991 10 -511 0 -927 4 -925 8 2 4 49 98 105 207 362
712 550 1436 582 2235 35 890 -139 1740 -522 2553 -31 64 -55 118 -54 119 1 1
421 5 932 8 l930 5 63 34 c78 43 135 104 175 189 30 63 32 74 32 177 0 104 -2
114 -32 175 -18 36 -51 84 -75 106 -24 23 -792 539 -1708 1146 -916 608 -2331
1547 -3145 2087 -814 541 -1515 1001 -1558 1022 -119 61 -239 89 -387 94 -81
3 -150 0 -197 -9z m627 -3520 c1095 -138 2059 -670 2745 -1516 629 -776 962
-1795 905 -2774 -14 -256 -30 -374 -54 -410 -24 -38 -97 -69 -139 -61 -90 19
-111 54 -148 240 -81 420 -289 900 -542 1255 -238 333 -573 660 -907 886 -307
207 -677 382 -1027 484 -491 144 -998 182 -1478 111 -884 -131 -1641 -590
-2153 -1307 -325 -456 -526 -990 -604 -1604 -17 -139 -17 -639 0 -780 71 -569
232 -1039 513 -1496 59 -95 69 -118 69 -157 0 -99 -113 -166 -203 -121 -74 38
-390 338 -546 519 -468 542 -796 1220 -930 1925 -51 269 -65 430 -65 750 0
234 4 339 17 450 82 659 292 1242 642 1780 564 867 1438 1483 2460 1735 168
42 387 79 545 94 63 6 131 13 150 15 86 10 632 -4 750 -18z m320 -2712 c520
-66 1014 -275 1420 -601 109 -87 316 -294 404 -403 693 -864 807 -2042 290
-3007 -94 -175 -269 -427 -358 -515 -38 -37 -78 -44 -119 -21 -17 11 -38 32
-46 47 -12 26 -10 39 23 145 75 242 106 451 106 725 0 399 -85 748 -269 1103
-326 627 -896 1074 -1583 1243 -228 56 -311 65 -588 65 -221 0 -273 -4 -389
-24 -539 -93 -1013 -343 -1379 -726 -159 -166 -286 -345 -414 -584 -23 -41
-35 -52 -67 -62 -34 -10 -44 -9 -73 8 -56 32 -61 54 -43 198 83 673 419 1312
917 1740 610 525 1394 767 2168 669z m-636 -2125 c313 -27 583 -122 846 -296
156 -104 356 -303 459 -457 164 -247 257 -495 292 -780 18 -147 6 -411 -24
-556 -35 -166 -86 -308 -120 -334 -41 -31 -78 -14 -95 44 -103 354 -218 585
-398 802 -212 253 -505 423 -835 484 -130 24 -379 24 -514 0 -304 -55 -549
-188 -771 -418 -198 -205 -335 -452 -432 -774 -33 -109 -43 -131 -65 -144 -24
-13 -30 -13 -54 0 -49 28 -129 296 -152 512 -75 683 277 1357 887 1702 240
136 508 209 822 224 19 1 89 -3 154 -9z"/>
</g>
</svg>
